<?xml version="1.0" encoding="utf-8"?>
<!-- Generator: Adobe Illustrator 17.1.0, SVG Export Plug-In . SVG Version: 6.00 Build 0)  -->
<!DOCTYPE svg PUBLIC "-//W3C//DTD SVG 1.1//EN" "http://www.w3.org/Graphics/SVG/1.1/DTD/svg11.dtd">
<svg version="1.1" id="Layer_1" xmlns="http://www.w3.org/2000/svg" xmlns:xlink="http://www.w3.org/1999/xlink" x="0px" y="0px"
	 viewBox="0 0 347 105" enable-background="new 0 0 347 105" xml:space="preserve">
<path fill-rule="evenodd" clip-rule="evenodd" fill="#132A44" d="M96.9,76.9c-9.9-3.7-20.8-4.6-31-3.1c-6.6-3.1-5.8-16.7-5.1-20.8
	c1.9-1.6,6.1-3,10.6-12.1l-0.5-1.8c-3.5,6.4-7.4,9.9-10.3,11c-1.4-4.4-1.1-13.8,1.1-19.5l-0.5-1.4c-1.5,2.8-3.7,11.6-3.8,13.9
	c-7.6-1.8-12.2-9.8-16.8-14.6L38,27.3c5,6,6.6,11.9,15.1,18.1c2,4.7,2.6,9.6,1.9,13.3c-6.3-2.9-10.5-6.7-13.1-10.3l-1.9-0.9
	c2.9,4.3,9.3,10.5,14.5,14.2c0.3,4.4-3.4,12.8-9.5,12.9C37,72.4,27.4,71.5,16,72.7c-1.1,0.1-3,0.4-5.4,0.9
	C15.5,87.2,26.3,98,40,102.8c9.3-3.3,21.6-7.6,21.2-10c-0.2-1.7-5.7-3.6-7.1-4.1c-2.2-0.9-7-2.6-7.5-5.3c-0.5-2.6,3.2-5,5.3-6.1
	c3.9-2,9-2.8,12.3-3.1c-1.8,0.5-4.1,2.2-3.5,4.2c0.6,2.3,8.2,4.5,10.3,5.4c8,3.2,11.7,7.3,8.2,14.6c-0.5,1.1-1.6,3-2.6,4.8
	c10.8-5.1,19.6-13.7,25-24.4C99.6,78,97.6,77.2,96.9,76.9"/>
<path fill-rule="evenodd" clip-rule="evenodd" fill="#132A44" d="M53.7,1c27.1,0,49.6,20.1,53.2,46.3c-0.3,0.1-0.6,0.3-0.9,0.4
	C101.5,24.1,80.8,6.3,55.9,6.3c-28.2,0-51,22.8-51,51c0,21.2,12.9,39.4,31.3,47.1c-0.4,0.2-0.8,0.4-1.2,0.6C14.5,97.4,0,77.7,0,54.7
	C0,25,24,1,53.7,1"/>
<path fill-rule="evenodd" clip-rule="evenodd" fill="#5D5F65" d="M78.1,52c-4-3.8-8.6-3.7-12.9-0.6c3.1,0.7,6.1,0.8,9,0.8
	c-2.8,0.3-5.5,0.5-8.6,0C69.4,56,73.9,55.7,78.1,52"/>
<path fill-rule="evenodd" clip-rule="evenodd" fill="#5D5F65" d="M41.4,19.9c5.6,1.6,8,5.9,7.4,11.5c-2.3-2.5-4-5.1-5.6-7.8
	c1.2,2.7,2.5,5.3,4.5,7.8C42.4,29.9,40.4,25.7,41.4,19.9"/>
<path fill-rule="evenodd" clip-rule="evenodd" fill="#5D5F65" d="M68.5,11.3c-7,1.9-10.1,7.2-9.5,14.2c3-3,5.1-6.3,7.1-9.7
	c-1.6,3.3-3.3,6.6-5.8,9.7C67.1,23.8,69.7,18.5,68.5,11.3"/>
<path fill-rule="evenodd" clip-rule="evenodd" fill="#5D5F65" d="M25.3,32.4c4.4-4.1,9.4-3.9,14.1-0.5c-3.4,0.8-6.7,0.9-9.9,0.8
	c3,0.3,6,0.6,9.4,0.1C34.8,36.8,29.9,36.4,25.3,32.4"/>
<path fill-rule="evenodd" clip-rule="evenodd" fill="#5D5F65" d="M99.3,34.9C92.7,33.2,87.8,36,85,42c3.8-1.1,7.1-2.7,10.2-4.5
	c-2.8,1.9-5.7,3.8-9.2,5.2C92.3,44.3,96.9,41.3,99.3,34.9"/>
<path fill-rule="evenodd" clip-rule="evenodd" fill="#5D5F65" d="M46.5,9c-2.5,6.1-0.4,11.2,4.9,14.7c-0.5-3.8-1.7-7.2-3-10.5
	c1.5,3,2.9,6,3.7,9.6C54.7,17,52.4,12.2,46.5,9"/>
<path fill-rule="evenodd" clip-rule="evenodd" fill="#5D5F65" d="M41.9,36c4.6,3.3,5.3,8.1,2.9,13c-1.3-3-2-6-2.5-9
	c0.2,2.9,0.5,5.7,1.5,8.7C39.5,45.5,39,40.9,41.9,36"/>
<path fill-rule="evenodd" clip-rule="evenodd" fill="#5D5F65" d="M24.6,53.5c5.2,1.9,9.5-0.1,12.2-4.8c-3.2,0.6-6,1.7-8.7,2.9
	c2.5-1.4,5-2.7,8-3.5C31.1,46.3,27.1,48.4,24.6,53.5"/>
<path fill-rule="evenodd" clip-rule="evenodd" fill="#5D5F65" d="M64.5,65.9c-3.1-3.8-2.7-7.9,0.4-11.5c0.4,2.8,0.3,5.5,0.1,8.1
	c0.4-2.4,0.8-4.9,0.6-7.6C68.6,58.5,68,62.4,64.5,65.9"/>
<path fill-rule="evenodd" clip-rule="evenodd" fill="#5D5F65" d="M48.6,43.7c4.4,2.8,5.4,7.2,3.4,11.9c-1.4-2.7-2.2-5.5-2.8-8.2
	c0.4,2.6,0.8,5.3,1.9,8C46.8,52.7,46.2,48.5,48.6,43.7"/>
<path fill-rule="evenodd" clip-rule="evenodd" fill="#5D5F65" d="M74.7,67.7c-4.4-2.4-5.7-6.4-4.2-11.1c1.6,2.5,2.5,5.1,3.4,7.6
	c-0.6-2.5-1.2-5-2.5-7.5C75.6,59,76.6,63,74.7,67.7"/>
<path fill-rule="evenodd" clip-rule="evenodd" fill="#5D5F65" d="M82.3,65.9c-4.9-2.6-6.3-7.1-4.7-12.2c1.7,2.8,2.8,5.6,3.7,8.4
	c-0.6-2.7-1.3-5.5-2.7-8.3C83.3,56.3,84.4,60.7,82.3,65.9"/>
<path fill-rule="evenodd" clip-rule="evenodd" fill="#5D5F65" d="M86.1,47.4c-3.3-4.8-8.2-5.8-13.4-3.4c3.1,1.5,6.2,2.2,9.3,2.9
	c-3-0.3-5.9-0.7-9-1.8C76.2,49.7,80.9,50.3,86.1,47.4"/>
<path fill-rule="evenodd" clip-rule="evenodd" fill="#5D5F65" d="M67.8,27.8c-5.7,3.9-6.9,9.7-4.2,15.8c1.8-3.7,2.7-7.3,3.5-10.9
	c-0.4,3.5-0.9,7-2.3,10.6C70.4,39.6,71.1,34,67.8,27.8"/>
<path fill-rule="evenodd" clip-rule="evenodd" fill="#5D5F65" d="M27.2,62.2c7.1,2,12.6-1.1,15.7-7.5c-4.2,1.1-7.8,2.9-11.3,4.7
	c3.1-2.1,6.3-4.1,10.2-5.5C35,52,30,55.2,27.2,62.2"/>
<path fill-rule="evenodd" clip-rule="evenodd" fill="#5D5F65" d="M28.6,37.4c0.8,6,4.8,9.2,10.7,9.6c-2.2-2.8-4.6-5-7.2-7.1
	c2.6,1.7,5.1,3.5,7.4,6C38.8,40.1,34.8,37.3,28.6,37.4"/>
<path fill-rule="evenodd" clip-rule="evenodd" fill="#5D5F65" d="M90.7,28.3c-2.1,8.1-8.1,11.7-16.2,11.2c3.4-3.5,7.2-6,11-8.4
	C81.6,33,77.9,35,74.3,38C76.2,30.2,82.3,27.1,90.7,28.3"/>
<path fill-rule="evenodd" clip-rule="evenodd" fill="#5D5F65" d="M28.2,18.4c0.6,5.6,4.2,8.6,9.6,9c-1.9-2.7-4.1-4.7-6.4-6.7
	c2.3,1.6,4.6,3.3,6.6,5.7C37.5,21.1,33.9,18.5,28.2,18.4"/>
<path fill-rule="evenodd" clip-rule="evenodd" fill="#5D5F65" d="M55.3,22.6c4.3,4.9,3.9,10.4,0,15.4c-0.7-3.8-0.7-7.3-0.5-10.8
	c-0.5,3.3-0.9,6.6-0.5,10.2C50.2,32.7,50.8,27.4,55.3,22.6"/>
<path fill-rule="evenodd" clip-rule="evenodd" fill="#5D5F65" d="M94.2,52.9c-4.6-3.9-9.6-3.5-14.1,0.2c3.5,0.6,6.7,0.6,9.9,0.4
	c-3,0.5-6,0.9-9.3,0.6C85,57.8,89.8,57.2,94.2,52.9"/>
<path fill-rule="evenodd" clip-rule="evenodd" fill="#5D5F65" d="M13,63.7c5.9,1.4,10.2-1.3,12.6-6.6c-3.4,1-6.3,2.6-9.1,4.2
	c2.5-1.8,5-3.5,8.1-4.8C19,55.1,15,57.9,13,63.7"/>
<path fill-rule="evenodd" clip-rule="evenodd" fill="#5D5F65" d="M40.2,68.3c5.5-1.9,7.6-6.3,6.7-11.9c-2.2,2.6-3.7,5.3-5.1,8.1
	c1.1-2.7,2.2-5.4,4.1-8.1C40.6,58.2,38.8,62.5,40.2,68.3"/>
<path fill-rule="evenodd" clip-rule="evenodd" fill="#5D5F65" d="M79.1,15.3c2.5,7-0.1,12.7-6.3,16.3c0.8-4.3,2.2-8,3.8-11.7
	c-1.8,3.3-3.6,6.6-4.7,10.6C69.5,23.9,72.3,18.6,79.1,15.3"/>
<path fill-rule="evenodd" clip-rule="evenodd" fill="#5D5F65" d="M13.7,38.7c3.3,5.9,8.8,7.6,15,5.5c-3.4-2-6.9-3.3-10.3-4.4
	c3.4,0.7,6.7,1.5,10.1,3.2C25.4,37.3,20.1,36,13.7,38.7"/>
<path fill-rule="evenodd" clip-rule="evenodd" fill="#5D5F65" d="M8,50.4c5.2,4.7,11.1,4.4,16.5,0.3c-4-0.8-7.8-0.9-11.6-0.8
	c3.5-0.4,7.1-0.8,10.9-0.3C18.9,45,13.3,45.6,8,50.4"/>
<path fill-rule="evenodd" clip-rule="evenodd" fill="#5D5F65" d="M97.6,67c-5.9,1.4-10.2-1.3-12.6-6.6c3.4,1,6.3,2.6,9.1,4.2
	c-2.5-1.8-5-3.5-8.1-4.8C91.5,58.4,95.6,61.2,97.6,67"/>
<path fill-rule="evenodd" clip-rule="evenodd" fill="#5D5F65" d="M106.4,57.6c-4.6,4.1-9.8,3.9-14.6,0.3c3.6-0.7,6.9-0.8,10.2-0.7
	c-3.1-0.4-6.2-0.7-9.7-0.3C96.7,52.9,101.7,53.4,106.4,57.6"/>
<path fill-rule="evenodd" clip-rule="evenodd" fill="#5D5F65" d="M103.2,48.8c-4.7,3.7-9.7,3.2-14.1-0.6c3.5-0.5,6.7-0.4,9.9-0.1
	c-3-0.6-6-1-9.3-0.8C94.2,43.7,99,44.5,103.2,48.8"/>
<path fill-rule="evenodd" clip-rule="evenodd" fill="#132A44" d="M159.6,34.4c-0.3,0-0.7,0.1-1.2,0.2c-0.4,0.1-0.9,0.3-1.2,0.6
	c-0.5,0.3-0.9,0.6-1.1,1c-0.3,0.4-0.5,0.9-0.8,1.6c-1,3.1-2.1,6.7-3.3,10.9c-1.3,4.2-2.6,8.6-4.1,13.3h-1.9l-7.2-22.1L131.2,62h-1.8
	c-1.3-4.7-2.7-9.6-4.1-14.7c-1.4-5.1-2.4-8.5-2.9-10.2c-0.1-0.4-0.3-0.8-0.5-1.1c-0.2-0.3-0.6-0.6-1-0.9c-0.3-0.2-0.7-0.4-1.2-0.5
	c-0.4-0.1-0.9-0.2-1.2-0.2v-1.4h11.7v1.4c-1,0.1-1.9,0.2-2.6,0.3c-0.7,0.1-1.1,0.4-1.1,0.7c0,0.1,0,0.3,0.1,0.5
	c0,0.2,0.1,0.4,0.1,0.5c0.3,1.2,0.9,3.1,1.6,5.9c0.8,2.7,2,6.8,3.5,12.3l7.2-21.3h2l7.2,21.8c1-3.4,1.8-6.3,2.5-8.8
	c0.7-2.5,1.3-4.6,1.7-6.4c0.3-1.3,0.5-2.1,0.6-2.6c0.1-0.5,0.1-0.9,0.1-1.2c0-0.5-0.3-0.8-0.9-1.2c-0.6-0.3-1.6-0.5-3-0.6v-1.4h10.4
	V34.4 M244.2,62.3c-1.7,0-3.3-0.3-4.9-1c-1.6-0.7-3-1.6-4.2-2.9c-1.2-1.3-2.2-2.8-2.9-4.6c-0.7-1.8-1.1-3.9-1.1-6.2
	c0-2.3,0.4-4.4,1-6.2c0.7-1.9,1.7-3.5,2.9-4.8c1.2-1.3,2.7-2.4,4.3-3.1c1.7-0.7,3.4-1.1,5.3-1.1c1.4,0,2.7,0.2,3.8,0.5
	c1.1,0.3,2.2,0.8,3.3,1.5l0.8-1.4h1.6l0.2,10.2h-1.7c-0.2-1-0.5-2.1-1-3.2c-0.4-1.2-0.9-2.1-1.5-3c-0.6-0.9-1.4-1.6-2.3-2.1
	c-0.9-0.5-1.9-0.8-3-0.8c-1.3,0-2.5,0.3-3.6,0.9c-1.1,0.6-2.1,1.4-2.9,2.6c-0.8,1.1-1.4,2.5-1.8,4.2c-0.4,1.7-0.7,3.6-0.7,5.6
	c0,1.8,0.2,3.5,0.7,5c0.5,1.5,1.1,2.9,2,4c0.9,1.1,1.9,2,3,2.7c1.2,0.6,2.5,1,3.9,1c1.1,0,2.1-0.2,3-0.5c0.9-0.3,1.7-0.8,2.4-1.4
	c0.7-0.6,1.3-1.3,1.8-2c0.5-0.8,0.9-1.6,1.2-2.5l1.5,0.7c-1.2,2.8-2.7,4.9-4.6,6.1C249.1,61.7,246.8,62.3,244.2,62.3z M179.5,54.8
	l-0.4,6.8h-19v-1.2c0.3,0,0.8-0.1,1.3-0.1c0.5-0.1,0.9-0.1,1.1-0.2c0.3-0.2,0.6-0.4,0.7-0.6c0.1-0.3,0.2-0.6,0.2-1V42
	c0-0.4-0.1-0.7-0.2-0.9c-0.1-0.3-0.4-0.5-0.8-0.7c-0.3-0.1-0.7-0.3-1.2-0.4c-0.5-0.1-0.9-0.2-1.2-0.2v-1.2h17.7v5.5h-1.2
	c-0.2-0.8-0.7-1.7-1.4-2.6c-0.7-0.9-1.4-1.4-2-1.5c-0.3,0-0.7-0.1-1.2-0.1c-0.5,0-1,0-1.6,0h-3.6V49h2.6c0.8,0,1.4-0.1,1.8-0.2
	c0.4-0.2,0.7-0.4,1-0.8c0.2-0.3,0.4-0.7,0.6-1.3c0.2-0.5,0.3-1,0.3-1.5h1.2v9H173c0-0.5-0.2-1.1-0.3-1.6c-0.2-0.6-0.4-1-0.6-1.3
	c-0.3-0.4-0.7-0.7-1.1-0.8c-0.4-0.1-1-0.2-1.7-0.2h-2.6v6.9c0,0.7,0,1.2,0.1,1.6c0.1,0.4,0.3,0.7,0.6,0.9c0.3,0.2,0.7,0.3,1.1,0.4
	c0.5,0.1,1.2,0.1,2.1,0.1c0.4,0,0.8,0,1.4,0c0.6,0,1.1,0,1.5-0.1c0.4,0,0.8-0.1,1.3-0.2c0.4-0.1,0.7-0.3,0.9-0.5
	c0.5-0.5,1-1.3,1.6-2.4c0.5-1,0.9-1.8,1-2.3H179.5z M196.4,51.1c0.5,0.5,0.8,1.1,1.1,1.8c0.2,0.6,0.3,1.4,0.3,2.2c0,2-0.8,3.7-2.2,5
	c-1.5,1.3-3.4,2-5.6,2c-1,0-2-0.2-3.1-0.5c-1-0.3-1.9-0.7-2.6-1.2l-0.7,1.2h-1.3l-0.2-7.8h1.3c0.3,1,0.6,1.8,0.9,2.6
	c0.4,0.8,0.8,1.5,1.4,2.2c0.6,0.6,1.2,1.1,2,1.5c0.7,0.4,1.6,0.6,2.6,0.6c0.7,0,1.4-0.1,1.9-0.3c0.6-0.2,1-0.5,1.4-0.8
	c0.3-0.4,0.6-0.8,0.8-1.2c0.2-0.5,0.2-1,0.2-1.7c0-0.9-0.3-1.8-0.8-2.6c-0.5-0.8-1.3-1.4-2.3-1.8c-0.7-0.3-1.5-0.6-2.4-0.9
	c-0.9-0.3-1.7-0.7-2.3-1c-1.3-0.6-2.3-1.3-3-2.3c-0.7-0.9-1.1-2.2-1.1-3.7c0-0.9,0.2-1.7,0.5-2.4c0.4-0.8,0.9-1.4,1.5-2
	c0.6-0.6,1.4-1,2.2-1.3c0.8-0.3,1.7-0.5,2.7-0.5c1.1,0,2,0.2,2.8,0.5c0.8,0.3,1.6,0.7,2.3,1.1l0.7-1.1h1.3l0.1,7.6h-1.3
	c-0.2-0.9-0.5-1.7-0.8-2.5c-0.3-0.8-0.7-1.5-1.2-2.2c-0.5-0.6-1-1.1-1.7-1.5c-0.7-0.4-1.5-0.6-2.5-0.6c-1,0-1.9,0.3-2.6,1
	c-0.7,0.7-1.1,1.5-1.1,2.4c0,1,0.2,1.8,0.7,2.5c0.5,0.7,1.1,1.2,2,1.6c0.8,0.4,1.6,0.7,2.3,1c0.8,0.3,1.5,0.6,2.2,0.9
	c0.6,0.3,1.3,0.6,1.9,1C195.5,50.2,196,50.6,196.4,51.1z M219.4,44.9h-1.1c-0.1-0.4-0.3-0.8-0.5-1.4c-0.3-0.5-0.5-1-0.8-1.5
	c-0.3-0.5-0.7-0.9-1.1-1.3c-0.4-0.4-0.8-0.6-1.1-0.6c-0.3,0-0.8-0.1-1.3-0.1c-0.5,0-1,0-1.4,0h-0.9v18.3c0,0.4,0.1,0.7,0.2,1
	c0.2,0.3,0.4,0.5,0.8,0.7c0.2,0.1,0.6,0.2,1.2,0.3c0.6,0.1,1.1,0.2,1.4,0.2v1.2h-10.8v-1.2c0.3,0,0.8-0.1,1.4-0.1
	c0.6-0.1,1-0.1,1.3-0.2c0.4-0.1,0.6-0.3,0.8-0.6c0.2-0.3,0.2-0.6,0.2-1.1V39.9h-0.9c-0.3,0-0.8,0-1.2,0c-0.5,0-1,0.1-1.4,0.1
	c-0.4,0-0.7,0.3-1.1,0.6c-0.4,0.4-0.7,0.8-1.1,1.3c-0.3,0.5-0.6,1-0.9,1.5c-0.2,0.5-0.4,1-0.5,1.4h-1.1v-6.2h20V44.9z M280.1,61.6
	h-6.2c-1.4-2.1-2.6-4-3.7-5.6c-1.1-1.6-2.3-3.2-3.6-4.8h-2.3v7.3c0,0.4,0.1,0.7,0.2,1c0.1,0.3,0.4,0.5,0.8,0.7
	c0.2,0.1,0.5,0.1,1,0.2c0.5,0.1,0.9,0.1,1.2,0.1v1.2h-9.7v-1.2c0.3,0,0.6-0.1,1.1-0.1c0.5-0.1,0.8-0.1,1-0.2
	c0.3-0.1,0.6-0.3,0.7-0.6c0.1-0.3,0.2-0.6,0.2-1V41.9c0-0.4-0.1-0.7-0.2-1c-0.1-0.3-0.4-0.5-0.8-0.7c-0.3-0.1-0.6-0.2-1-0.3
	c-0.4-0.1-0.8-0.1-1.1-0.2v-1.2h10.6c1,0,1.9,0.1,2.7,0.3c0.9,0.2,1.6,0.5,2.3,1c0.7,0.4,1.2,1,1.6,1.7c0.4,0.7,0.6,1.5,0.6,2.5
	c0,0.9-0.1,1.7-0.4,2.3c-0.3,0.7-0.7,1.3-1.2,1.8c-0.5,0.5-1.1,0.9-1.7,1.2c-0.7,0.3-1.4,0.6-2.3,0.9c1.1,1.5,2.1,2.8,2.8,3.8
	c0.8,1,1.7,2.3,2.8,3.7c0.5,0.7,0.9,1.1,1.3,1.4c0.4,0.3,0.8,0.6,1.1,0.8c0.3,0.1,0.6,0.2,1.1,0.3c0.4,0.1,0.8,0.1,1,0.1V61.6z
	 M271.6,44.5c0-1.4-0.4-2.5-1.2-3.3c-0.8-0.8-1.9-1.2-3.4-1.2h-2.7v9.8h2.1c1.5,0,2.7-0.5,3.7-1.4C271.1,47.4,271.6,46.1,271.6,44.5
	z M300.3,54.8l-0.4,6.8h-19v-1.2c0.3,0,0.8-0.1,1.3-0.1c0.5-0.1,0.9-0.1,1.1-0.2c0.3-0.2,0.6-0.4,0.7-0.6c0.1-0.3,0.2-0.6,0.2-1V42
	c0-0.4-0.1-0.7-0.2-0.9c-0.1-0.3-0.4-0.5-0.8-0.7c-0.3-0.1-0.7-0.3-1.2-0.4c-0.5-0.1-0.9-0.2-1.2-0.2v-1.2h17.7v5.5h-1.2
	c-0.2-0.8-0.7-1.7-1.4-2.6c-0.7-0.9-1.4-1.4-2-1.5c-0.3,0-0.7-0.1-1.2-0.1c-0.5,0-1,0-1.6,0h-3.6V49h2.6c0.8,0,1.4-0.1,1.8-0.2
	c0.4-0.2,0.7-0.4,1-0.8c0.2-0.3,0.4-0.7,0.6-1.3c0.2-0.5,0.3-1,0.3-1.5h1.2v9h-1.2c0-0.5-0.2-1.1-0.3-1.6c-0.2-0.6-0.4-1-0.6-1.3
	c-0.3-0.4-0.7-0.7-1.1-0.8c-0.4-0.1-1-0.2-1.7-0.2h-2.6v6.9c0,0.7,0,1.2,0.1,1.6c0.1,0.4,0.3,0.7,0.6,0.9c0.3,0.2,0.7,0.3,1.1,0.4
	c0.5,0.1,1.2,0.1,2.1,0.1c0.4,0,0.8,0,1.4,0c0.6,0,1.1,0,1.5-0.1c0.4,0,0.8-0.1,1.3-0.2c0.4-0.1,0.7-0.3,0.9-0.5
	c0.5-0.5,1-1.3,1.6-2.4c0.5-1,0.9-1.8,1-2.3H300.3z M321.9,54.8l-0.4,6.8h-19v-1.2c0.3,0,0.8-0.1,1.3-0.1c0.5-0.1,0.9-0.1,1.1-0.2
	c0.3-0.2,0.6-0.4,0.7-0.6c0.1-0.3,0.2-0.6,0.2-1V42c0-0.4-0.1-0.7-0.2-0.9c-0.1-0.3-0.4-0.5-0.8-0.7c-0.3-0.1-0.7-0.3-1.2-0.4
	c-0.5-0.1-0.9-0.2-1.2-0.2v-1.2h17.7v5.5h-1.2c-0.2-0.8-0.7-1.7-1.4-2.6c-0.7-0.9-1.4-1.4-2-1.5c-0.3,0-0.7-0.1-1.2-0.1
	c-0.5,0-1,0-1.6,0h-3.6V49h2.6c0.8,0,1.4-0.1,1.8-0.2c0.4-0.2,0.7-0.4,1-0.8c0.2-0.3,0.4-0.7,0.6-1.3c0.2-0.5,0.3-1,0.3-1.5h1.2v9
	h-1.2c0-0.5-0.2-1.1-0.3-1.6c-0.2-0.6-0.4-1-0.6-1.3c-0.3-0.4-0.7-0.7-1.1-0.8c-0.4-0.1-1-0.2-1.7-0.2h-2.6v6.9c0,0.7,0,1.2,0.1,1.6
	c0.1,0.4,0.3,0.7,0.6,0.9c0.3,0.2,0.7,0.3,1.1,0.4c0.5,0.1,1.2,0.1,2.1,0.1c0.4,0,0.8,0,1.4,0c0.6,0,1.1,0,1.5-0.1
	c0.4,0,0.8-0.1,1.3-0.2c0.4-0.1,0.7-0.3,0.9-0.5c0.5-0.5,1-1.3,1.6-2.4c0.5-1,0.9-1.8,1-2.3H321.9z M346.5,61.6h-6.4
	c-1.2-1.9-2.6-3.8-4.1-5.7c-1.5-1.9-3.1-3.7-4.8-5.5h-0.4v8c0,0.4,0.1,0.7,0.2,1c0.1,0.3,0.4,0.5,0.7,0.7c0.2,0.1,0.5,0.2,1,0.3
	c0.5,0.1,0.9,0.2,1.2,0.2v1.2h-9.5v-1.2c0.3,0,0.6-0.1,1.1-0.1c0.5,0,0.8-0.1,1-0.2c0.3-0.1,0.6-0.3,0.7-0.6c0.1-0.3,0.2-0.6,0.2-1
	V42c0-0.4-0.1-0.7-0.2-1c-0.1-0.3-0.4-0.5-0.7-0.7c-0.3-0.1-0.6-0.3-1-0.4c-0.4-0.1-0.8-0.2-1.1-0.2v-1.2h9.5v1.2
	c-0.3,0-0.7,0.1-1.1,0.1c-0.5,0.1-0.8,0.2-1,0.2c-0.4,0.1-0.6,0.3-0.7,0.6c-0.1,0.3-0.2,0.6-0.2,1v7.9h0.3c1-0.8,1.9-1.7,2.9-2.6
	c0.9-0.9,1.8-1.8,2.6-2.7c0.9-1,1.5-1.8,1.9-2.4c0.4-0.6,0.6-1.1,0.6-1.6c0-0.2-0.1-0.3-0.3-0.4c-0.2-0.1-0.4-0.2-0.7-0.2
	c-0.3-0.1-0.6-0.1-0.8-0.1c-0.2,0-0.4,0-0.6,0v-1.2h8.6v1.2c0,0-0.1,0-0.2,0c-0.1,0-0.2,0-0.4,0c-0.1,0-0.3,0-0.5,0.1
	c-0.1,0-0.3,0.1-0.6,0.1c-0.4,0.1-0.8,0.2-1.2,0.4c-0.4,0.2-0.7,0.4-1,0.7c-1.1,1.3-2.3,2.6-3.5,3.9c-1.2,1.4-2.4,2.6-3.6,3.7
	c1.6,1.9,3,3.5,4.1,4.8c1.1,1.3,2.2,2.8,3.4,4.3c0.5,0.6,0.9,1,1.4,1.4c0.5,0.3,0.9,0.6,1.2,0.8c0.3,0.1,0.6,0.2,1,0.3
	c0.4,0.1,0.8,0.1,1,0.1V61.6z"/>
<path fill-rule="evenodd" clip-rule="evenodd" fill="#5D5F65" d="M127.6,74.7H127c-0.1-0.4-0.4-0.9-0.7-1.4c-0.4-0.5-0.7-0.8-1-0.8
	c-0.2,0-0.4,0-0.6,0c-0.2,0-0.5,0-0.8,0h-1.9v4.7h1.3c0.4,0,0.7,0,0.9-0.1c0.2-0.1,0.4-0.2,0.6-0.4c0.1-0.1,0.2-0.3,0.3-0.6
	c0.1-0.3,0.1-0.5,0.2-0.8h0.6v4.6h-0.6c0-0.2-0.1-0.5-0.2-0.8s-0.2-0.5-0.3-0.7c-0.2-0.2-0.4-0.3-0.6-0.4c-0.2-0.1-0.5-0.1-0.9-0.1
	h-1.3v4c0,0.2,0,0.3,0.1,0.5c0.1,0.1,0.2,0.3,0.4,0.3c0.1,0,0.3,0.1,0.5,0.1c0.3,0.1,0.5,0.1,0.6,0.1v0.6h-5.1v-0.6
	c0.2,0,0.4,0,0.7-0.1c0.3,0,0.5-0.1,0.5-0.1c0.2-0.1,0.3-0.2,0.4-0.3c0.1-0.1,0.1-0.3,0.1-0.5v-8.4c0-0.2,0-0.3-0.1-0.5
	c-0.1-0.1-0.2-0.3-0.4-0.3c-0.1-0.1-0.3-0.1-0.6-0.2c-0.2-0.1-0.4-0.1-0.6-0.1v-0.6h9.1V74.7 M150.8,83.5h-5.2v-0.6
	c0.1,0,0.4,0,0.6-0.1c0.3,0,0.5-0.1,0.6-0.1c0.2-0.1,0.3-0.2,0.4-0.3c0.1-0.1,0.1-0.3,0.1-0.5v-8.4c0-0.2,0-0.3-0.1-0.5
	c-0.1-0.1-0.2-0.2-0.4-0.3c-0.2-0.1-0.4-0.1-0.6-0.2c-0.2-0.1-0.4-0.1-0.6-0.1v-0.6h5.2v0.6c-0.2,0-0.4,0-0.6,0.1
	c-0.2,0-0.4,0.1-0.6,0.1c-0.2,0.1-0.4,0.2-0.4,0.3c-0.1,0.1-0.1,0.3-0.1,0.5v8.4c0,0.2,0,0.3,0.1,0.5c0.1,0.1,0.2,0.3,0.4,0.3
	c0.1,0,0.3,0.1,0.6,0.1c0.3,0.1,0.5,0.1,0.7,0.1V83.5z M181.2,72.4c-0.2,0-0.4,0.1-0.7,0.1c-0.3,0.1-0.5,0.2-0.7,0.3
	c-0.2,0.1-0.3,0.4-0.4,0.8c-0.1,0.4-0.1,0.9-0.1,1.5v8.5h-0.7l-7-9.5v6c0,0.7,0,1.2,0.1,1.5c0.1,0.4,0.2,0.6,0.4,0.8
	c0.1,0.1,0.4,0.2,0.8,0.3c0.4,0.1,0.7,0.2,0.8,0.2v0.6h-4.8v-0.6c0.1,0,0.4-0.1,0.7-0.2c0.3-0.1,0.6-0.2,0.7-0.3
	c0.2-0.2,0.3-0.4,0.4-0.7c0.1-0.3,0.1-0.8,0.1-1.6v-5.7c0-0.2,0-0.5-0.1-0.8c-0.1-0.3-0.2-0.4-0.4-0.6c-0.2-0.2-0.5-0.3-0.8-0.5
	c-0.3-0.1-0.6-0.2-0.8-0.2v-0.6h3.3l6.5,8.8v-5.5c0-0.7,0-1.2-0.1-1.6c-0.1-0.4-0.2-0.6-0.4-0.7c-0.2-0.1-0.4-0.2-0.7-0.3
	c-0.3-0.1-0.6-0.2-0.8-0.2v-0.6h4.7V72.4z M210.1,83.5h-4.8v-0.6c0.4,0,0.8-0.1,1.1-0.2c0.3-0.1,0.4-0.2,0.4-0.3c0-0.1,0-0.1,0-0.2
	c0-0.1,0-0.1-0.1-0.2l-1-2.6h-4.1c-0.2,0.4-0.3,0.7-0.4,1c-0.1,0.3-0.2,0.5-0.3,0.8c-0.1,0.2-0.1,0.4-0.1,0.6c0,0.1,0,0.3,0,0.4
	c0,0.2,0.2,0.4,0.5,0.5c0.3,0.1,0.7,0.2,1.2,0.2v0.6h-4.4v-0.6c0.1,0,0.3,0,0.5-0.1c0.2-0.1,0.4-0.1,0.5-0.2
	c0.2-0.1,0.4-0.3,0.5-0.5c0.1-0.2,0.2-0.4,0.4-0.7c0.6-1.5,1.2-3.1,1.9-4.9c0.7-1.8,1.3-3.4,1.9-4.9h0.7l3.9,10
	c0.1,0.2,0.2,0.4,0.3,0.5c0.1,0.1,0.2,0.3,0.4,0.4c0.1,0.1,0.3,0.1,0.5,0.2c0.2,0.1,0.4,0.1,0.5,0.1V83.5z M205.4,78.7l-1.8-4.5
	l-1.7,4.5H205.4z M239.4,72.4c-0.2,0-0.4,0.1-0.7,0.1c-0.3,0.1-0.5,0.2-0.7,0.3c-0.2,0.1-0.3,0.4-0.4,0.8c-0.1,0.4-0.1,0.9-0.1,1.5
	v8.5h-0.7l-7-9.5v6c0,0.7,0,1.2,0.1,1.5c0.1,0.4,0.2,0.6,0.4,0.8c0.1,0.1,0.4,0.2,0.8,0.3c0.4,0.1,0.7,0.2,0.8,0.2v0.6h-4.8v-0.6
	c0.1,0,0.4-0.1,0.7-0.2c0.3-0.1,0.6-0.2,0.7-0.3c0.2-0.2,0.3-0.4,0.4-0.7c0.1-0.3,0.1-0.8,0.1-1.6v-5.7c0-0.2,0-0.5-0.1-0.8
	c-0.1-0.3-0.2-0.4-0.4-0.6c-0.2-0.2-0.5-0.3-0.8-0.5c-0.3-0.1-0.6-0.2-0.8-0.2v-0.6h3.3l6.5,8.8v-5.5c0-0.7,0-1.2-0.1-1.6
	c-0.1-0.4-0.2-0.6-0.4-0.7c-0.2-0.1-0.4-0.2-0.7-0.3c-0.3-0.1-0.6-0.2-0.8-0.2v-0.6h4.7V72.4z M262.6,83.7c-0.7,0-1.4-0.1-2-0.4
	c-0.6-0.3-1.2-0.7-1.7-1.2c-0.5-0.5-0.9-1.1-1.2-1.9c-0.3-0.7-0.4-1.6-0.4-2.5c0-0.9,0.1-1.8,0.4-2.5c0.3-0.8,0.7-1.4,1.2-2
	c0.5-0.5,1.1-1,1.8-1.3c0.7-0.3,1.4-0.4,2.2-0.4c0.6,0,1.1,0.1,1.5,0.2c0.5,0.1,0.9,0.3,1.3,0.6l0.3-0.6h0.7l0.1,4.1h-0.7
	c-0.1-0.4-0.2-0.8-0.4-1.3c-0.2-0.5-0.4-0.9-0.6-1.2c-0.3-0.4-0.6-0.7-0.9-0.9c-0.4-0.2-0.8-0.3-1.2-0.3c-0.5,0-1,0.1-1.5,0.4
	c-0.5,0.2-0.8,0.6-1.2,1c-0.3,0.4-0.6,1-0.7,1.7c-0.2,0.7-0.3,1.4-0.3,2.3c0,0.7,0.1,1.4,0.3,2c0.2,0.6,0.5,1.2,0.8,1.6
	c0.3,0.5,0.8,0.8,1.2,1.1c0.5,0.3,1,0.4,1.6,0.4c0.4,0,0.8-0.1,1.2-0.2c0.4-0.1,0.7-0.3,1-0.6c0.3-0.2,0.5-0.5,0.7-0.8
	c0.2-0.3,0.4-0.6,0.5-1l0.6,0.3c-0.5,1.2-1.1,2-1.9,2.5C264.6,83.5,263.7,83.7,262.6,83.7z M290.4,83.5h-5.2v-0.6
	c0.1,0,0.4,0,0.6-0.1c0.3,0,0.5-0.1,0.6-0.1c0.2-0.1,0.3-0.2,0.4-0.3c0.1-0.1,0.1-0.3,0.1-0.5v-8.4c0-0.2,0-0.3-0.1-0.5
	c-0.1-0.1-0.2-0.2-0.4-0.3c-0.2-0.1-0.4-0.1-0.6-0.2c-0.2-0.1-0.4-0.1-0.6-0.1v-0.6h5.2v0.6c-0.2,0-0.4,0-0.6,0.1
	c-0.2,0-0.4,0.1-0.6,0.1c-0.2,0.1-0.4,0.2-0.4,0.3c-0.1,0.1-0.1,0.3-0.1,0.5v8.4c0,0.2,0,0.3,0.1,0.5c0.1,0.1,0.2,0.3,0.4,0.3
	c0.1,0,0.3,0.1,0.6,0.1c0.3,0.1,0.5,0.1,0.7,0.1V83.5z M319.7,83.5h-4.8v-0.6c0.4,0,0.8-0.1,1.1-0.2c0.3-0.1,0.4-0.2,0.4-0.3
	c0-0.1,0-0.1,0-0.2c0-0.1,0-0.1,0-0.2l-1-2.6h-4.1c-0.2,0.4-0.3,0.7-0.4,1c-0.1,0.3-0.2,0.5-0.3,0.8c-0.1,0.2-0.1,0.4-0.1,0.6
	c0,0.1,0,0.3,0,0.4c0,0.2,0.2,0.4,0.5,0.5c0.3,0.1,0.7,0.2,1.2,0.2v0.6h-4.4v-0.6c0.1,0,0.3,0,0.5-0.1c0.2-0.1,0.4-0.1,0.5-0.2
	c0.2-0.1,0.4-0.3,0.5-0.5c0.1-0.2,0.2-0.4,0.4-0.7c0.6-1.5,1.2-3.1,1.9-4.9c0.7-1.8,1.3-3.4,1.9-4.9h0.7l3.9,10
	c0.1,0.2,0.2,0.4,0.3,0.5c0.1,0.1,0.2,0.3,0.4,0.4c0.1,0.1,0.3,0.1,0.5,0.2c0.2,0.1,0.4,0.1,0.5,0.1V83.5z M315.1,78.7l-1.8-4.5
	l-1.7,4.5H315.1z M346.6,80l-0.2,3.5h-9.1v-0.6c0.1,0,0.3,0,0.6-0.1c0.2,0,0.4-0.1,0.5-0.1c0.2-0.1,0.3-0.2,0.4-0.3
	c0.1-0.1,0.1-0.3,0.1-0.5v-8.3c0-0.2,0-0.3-0.1-0.5c-0.1-0.1-0.2-0.3-0.4-0.3c-0.1-0.1-0.3-0.1-0.5-0.2c-0.2-0.1-0.4-0.1-0.6-0.1
	v-0.6h4.9v0.6c-0.2,0-0.4,0-0.6,0.1c-0.2,0-0.4,0.1-0.5,0.1c-0.2,0.1-0.3,0.2-0.4,0.3c-0.1,0.2-0.1,0.3-0.1,0.5v7.8
	c0,0.4,0,0.6,0.1,0.8c0,0.2,0.1,0.4,0.2,0.5c0.1,0.1,0.3,0.2,0.6,0.2c0.2,0,0.6,0,1,0c0.2,0,0.4,0,0.6,0c0.2,0,0.4,0,0.6-0.1
	c0.2,0,0.4-0.1,0.5-0.1c0.2-0.1,0.3-0.1,0.4-0.2c0.2-0.2,0.5-0.6,0.8-1.1c0.3-0.5,0.5-0.9,0.6-1.2H346.6z"/>
<rect fill="none" width="347" height="105"/>
</svg>
